<mxfile host="app.diagrams.net" modified="2021-09-27T10:41:53.532Z" agent="5.0 (Windows NT 10.0; Win64; x64) AppleWebKit/537.36 (KHTML, like Gecko) Chrome/94.0.4606.61 Safari/537.36" etag="bfAq02aY36MAt2UnncM8" version="15.3.4" type="github">
  <diagram name="Page-1" id="b5b7bab2-c9e2-2cf4-8b2a-24fd1a2a6d21">
    <mxGraphModel dx="2086" dy="2293" grid="1" gridSize="10" guides="1" tooltips="1" connect="1" arrows="1" fold="1" page="1" pageScale="1" pageWidth="827" pageHeight="1169" background="none" math="0" shadow="0">
      <root>
        <mxCell id="0" />
        <mxCell id="1" parent="0" />
        <mxCell id="PDdewnTOg1O3W2x46WFQ-37" style="edgeStyle=none;rounded=0;orthogonalLoop=1;jettySize=auto;html=1;exitX=0;exitY=0;exitDx=0;exitDy=0;entryX=0.5;entryY=1;entryDx=0;entryDy=0;endArrow=none;startSize=14;endSize=14;sourcePerimeterSpacing=8;targetPerimeterSpacing=8;" edge="1" parent="1" source="PDdewnTOg1O3W2x46WFQ-1" target="PDdewnTOg1O3W2x46WFQ-31">
          <mxGeometry relative="1" as="geometry" />
        </mxCell>
        <mxCell id="PDdewnTOg1O3W2x46WFQ-1" value="书籍" style="rounded=1;whiteSpace=wrap;html=1;hachureGap=4;pointerEvents=0;" vertex="1" parent="1">
          <mxGeometry x="340" y="390" width="120" height="60" as="geometry" />
        </mxCell>
        <mxCell id="PDdewnTOg1O3W2x46WFQ-83" value="" style="edgeStyle=none;rounded=0;orthogonalLoop=1;jettySize=auto;html=1;endArrow=none;startSize=14;endSize=14;sourcePerimeterSpacing=8;targetPerimeterSpacing=8;" edge="1" parent="1" source="PDdewnTOg1O3W2x46WFQ-2" target="PDdewnTOg1O3W2x46WFQ-82">
          <mxGeometry relative="1" as="geometry" />
        </mxCell>
        <mxCell id="PDdewnTOg1O3W2x46WFQ-2" value="用户" style="rounded=1;whiteSpace=wrap;html=1;hachureGap=4;pointerEvents=0;" vertex="1" parent="1">
          <mxGeometry x="730" y="100" width="120" height="60" as="geometry" />
        </mxCell>
        <mxCell id="PDdewnTOg1O3W2x46WFQ-28" style="edgeStyle=none;rounded=0;orthogonalLoop=1;jettySize=auto;html=1;exitX=1;exitY=0;exitDx=0;exitDy=0;entryX=0;entryY=0.5;entryDx=0;entryDy=0;endArrow=none;startSize=14;endSize=14;sourcePerimeterSpacing=8;targetPerimeterSpacing=8;" edge="1" parent="1" source="PDdewnTOg1O3W2x46WFQ-3" target="PDdewnTOg1O3W2x46WFQ-14">
          <mxGeometry relative="1" as="geometry" />
        </mxCell>
        <mxCell id="PDdewnTOg1O3W2x46WFQ-29" style="edgeStyle=none;rounded=0;orthogonalLoop=1;jettySize=auto;html=1;exitX=1;exitY=0.5;exitDx=0;exitDy=0;entryX=0;entryY=0.5;entryDx=0;entryDy=0;endArrow=none;startSize=14;endSize=14;sourcePerimeterSpacing=8;targetPerimeterSpacing=8;" edge="1" parent="1" source="PDdewnTOg1O3W2x46WFQ-3" target="PDdewnTOg1O3W2x46WFQ-13">
          <mxGeometry relative="1" as="geometry" />
        </mxCell>
        <mxCell id="PDdewnTOg1O3W2x46WFQ-30" style="edgeStyle=none;rounded=0;orthogonalLoop=1;jettySize=auto;html=1;exitX=1;exitY=1;exitDx=0;exitDy=0;entryX=0;entryY=0.5;entryDx=0;entryDy=0;endArrow=none;startSize=14;endSize=14;sourcePerimeterSpacing=8;targetPerimeterSpacing=8;" edge="1" parent="1" source="PDdewnTOg1O3W2x46WFQ-3" target="PDdewnTOg1O3W2x46WFQ-15">
          <mxGeometry relative="1" as="geometry" />
        </mxCell>
        <mxCell id="PDdewnTOg1O3W2x46WFQ-3" value="订单" style="rounded=1;whiteSpace=wrap;html=1;hachureGap=4;pointerEvents=0;" vertex="1" parent="1">
          <mxGeometry x="730" y="390" width="120" height="60" as="geometry" />
        </mxCell>
        <mxCell id="PDdewnTOg1O3W2x46WFQ-12" style="edgeStyle=none;rounded=0;orthogonalLoop=1;jettySize=auto;html=1;exitX=1;exitY=0.5;exitDx=0;exitDy=0;entryX=0;entryY=0.5;entryDx=0;entryDy=0;endArrow=none;startSize=14;endSize=14;sourcePerimeterSpacing=8;targetPerimeterSpacing=8;" edge="1" parent="1" source="PDdewnTOg1O3W2x46WFQ-4" target="PDdewnTOg1O3W2x46WFQ-3">
          <mxGeometry relative="1" as="geometry" />
        </mxCell>
        <mxCell id="PDdewnTOg1O3W2x46WFQ-4" value="包含" style="rhombus;whiteSpace=wrap;html=1;rounded=1;hachureGap=4;" vertex="1" parent="1">
          <mxGeometry x="550" y="380" width="80" height="80" as="geometry" />
        </mxCell>
        <mxCell id="PDdewnTOg1O3W2x46WFQ-9" value="" style="endArrow=none;html=1;rounded=0;startSize=14;endSize=14;sourcePerimeterSpacing=8;targetPerimeterSpacing=8;exitX=1;exitY=0.5;exitDx=0;exitDy=0;entryX=0;entryY=0.5;entryDx=0;entryDy=0;" edge="1" parent="1" source="PDdewnTOg1O3W2x46WFQ-1" target="PDdewnTOg1O3W2x46WFQ-4">
          <mxGeometry relative="1" as="geometry">
            <mxPoint x="450" y="440" as="sourcePoint" />
            <mxPoint x="610" y="440" as="targetPoint" />
          </mxGeometry>
        </mxCell>
        <mxCell id="PDdewnTOg1O3W2x46WFQ-10" value="n" style="text;strokeColor=none;fillColor=none;spacingLeft=4;spacingRight=4;overflow=hidden;rotatable=0;points=[[0,0.5],[1,0.5]];portConstraint=eastwest;fontSize=12;hachureGap=4;pointerEvents=0;" vertex="1" parent="1">
          <mxGeometry x="540" y="400" width="40" height="30" as="geometry" />
        </mxCell>
        <mxCell id="PDdewnTOg1O3W2x46WFQ-13" value="订单总价" style="ellipse;whiteSpace=wrap;html=1;align=center;hachureGap=4;pointerEvents=0;" vertex="1" parent="1">
          <mxGeometry x="910" y="400" width="100" height="40" as="geometry" />
        </mxCell>
        <mxCell id="PDdewnTOg1O3W2x46WFQ-14" value="订单状态" style="ellipse;whiteSpace=wrap;html=1;align=center;hachureGap=4;pointerEvents=0;" vertex="1" parent="1">
          <mxGeometry x="910" y="340" width="100" height="40" as="geometry" />
        </mxCell>
        <mxCell id="PDdewnTOg1O3W2x46WFQ-15" value="下单日期" style="ellipse;whiteSpace=wrap;html=1;align=center;hachureGap=4;pointerEvents=0;" vertex="1" parent="1">
          <mxGeometry x="910" y="460" width="100" height="40" as="geometry" />
        </mxCell>
        <mxCell id="PDdewnTOg1O3W2x46WFQ-22" style="edgeStyle=none;rounded=0;orthogonalLoop=1;jettySize=auto;html=1;exitX=0.5;exitY=0;exitDx=0;exitDy=0;entryX=0;entryY=1;entryDx=0;entryDy=0;endArrow=none;startSize=14;endSize=14;sourcePerimeterSpacing=8;targetPerimeterSpacing=8;" edge="1" parent="1" source="PDdewnTOg1O3W2x46WFQ-16" target="PDdewnTOg1O3W2x46WFQ-3">
          <mxGeometry relative="1" as="geometry" />
        </mxCell>
        <mxCell id="PDdewnTOg1O3W2x46WFQ-16" value="订单号" style="ellipse;whiteSpace=wrap;html=1;align=center;fontStyle=4;hachureGap=4;pointerEvents=0;" vertex="1" parent="1">
          <mxGeometry x="640" y="510" width="100" height="40" as="geometry" />
        </mxCell>
        <mxCell id="PDdewnTOg1O3W2x46WFQ-23" style="edgeStyle=none;rounded=0;orthogonalLoop=1;jettySize=auto;html=1;exitX=0.5;exitY=0;exitDx=0;exitDy=0;entryX=0.5;entryY=1;entryDx=0;entryDy=0;endArrow=none;startSize=14;endSize=14;sourcePerimeterSpacing=8;targetPerimeterSpacing=8;" edge="1" parent="1" source="PDdewnTOg1O3W2x46WFQ-19" target="PDdewnTOg1O3W2x46WFQ-3">
          <mxGeometry relative="1" as="geometry" />
        </mxCell>
        <mxCell id="PDdewnTOg1O3W2x46WFQ-19" value="订单明细" style="ellipse;shape=doubleEllipse;margin=3;whiteSpace=wrap;html=1;align=center;hachureGap=4;pointerEvents=0;" vertex="1" parent="1">
          <mxGeometry x="800" y="510" width="100" height="40" as="geometry" />
        </mxCell>
        <mxCell id="PDdewnTOg1O3W2x46WFQ-24" style="edgeStyle=none;rounded=0;orthogonalLoop=1;jettySize=auto;html=1;exitX=0.5;exitY=0;exitDx=0;exitDy=0;entryX=0;entryY=1;entryDx=0;entryDy=0;endArrow=none;startSize=14;endSize=14;sourcePerimeterSpacing=8;targetPerimeterSpacing=8;" edge="1" parent="1" source="PDdewnTOg1O3W2x46WFQ-20" target="PDdewnTOg1O3W2x46WFQ-19">
          <mxGeometry relative="1" as="geometry" />
        </mxCell>
        <mxCell id="PDdewnTOg1O3W2x46WFQ-20" value="书名" style="ellipse;whiteSpace=wrap;html=1;align=center;hachureGap=4;pointerEvents=0;" vertex="1" parent="1">
          <mxGeometry x="740" y="570" width="100" height="40" as="geometry" />
        </mxCell>
        <mxCell id="PDdewnTOg1O3W2x46WFQ-27" style="edgeStyle=none;rounded=0;orthogonalLoop=1;jettySize=auto;html=1;exitX=0.5;exitY=0;exitDx=0;exitDy=0;entryX=1;entryY=0.5;entryDx=0;entryDy=0;endArrow=none;startSize=14;endSize=14;sourcePerimeterSpacing=8;targetPerimeterSpacing=8;" edge="1" parent="1" source="PDdewnTOg1O3W2x46WFQ-21" target="PDdewnTOg1O3W2x46WFQ-19">
          <mxGeometry relative="1" as="geometry" />
        </mxCell>
        <mxCell id="PDdewnTOg1O3W2x46WFQ-21" value="购买数量" style="ellipse;whiteSpace=wrap;html=1;align=center;hachureGap=4;pointerEvents=0;" vertex="1" parent="1">
          <mxGeometry x="890" y="570" width="100" height="40" as="geometry" />
        </mxCell>
        <mxCell id="PDdewnTOg1O3W2x46WFQ-31" value="展示方式" style="ellipse;whiteSpace=wrap;html=1;align=center;hachureGap=4;pointerEvents=0;" vertex="1" parent="1">
          <mxGeometry x="200" y="320" width="100" height="40" as="geometry" />
        </mxCell>
        <mxCell id="PDdewnTOg1O3W2x46WFQ-39" style="edgeStyle=none;rounded=0;orthogonalLoop=1;jettySize=auto;html=1;exitX=0.5;exitY=1;exitDx=0;exitDy=0;entryX=0.5;entryY=0;entryDx=0;entryDy=0;endArrow=none;startSize=14;endSize=14;sourcePerimeterSpacing=8;targetPerimeterSpacing=8;" edge="1" parent="1" source="PDdewnTOg1O3W2x46WFQ-32" target="PDdewnTOg1O3W2x46WFQ-1">
          <mxGeometry relative="1" as="geometry" />
        </mxCell>
        <mxCell id="PDdewnTOg1O3W2x46WFQ-32" value="作者" style="ellipse;whiteSpace=wrap;html=1;align=center;hachureGap=4;pointerEvents=0;" vertex="1" parent="1">
          <mxGeometry x="310" y="220" width="100" height="40" as="geometry" />
        </mxCell>
        <mxCell id="PDdewnTOg1O3W2x46WFQ-42" style="edgeStyle=none;rounded=0;orthogonalLoop=1;jettySize=auto;html=1;exitX=0.5;exitY=1;exitDx=0;exitDy=0;entryX=0.997;entryY=0.102;entryDx=0;entryDy=0;entryPerimeter=0;endArrow=none;startSize=14;endSize=14;sourcePerimeterSpacing=8;targetPerimeterSpacing=8;" edge="1" parent="1" source="PDdewnTOg1O3W2x46WFQ-33" target="PDdewnTOg1O3W2x46WFQ-1">
          <mxGeometry relative="1" as="geometry" />
        </mxCell>
        <mxCell id="PDdewnTOg1O3W2x46WFQ-33" value="单价" style="ellipse;whiteSpace=wrap;html=1;align=center;hachureGap=4;pointerEvents=0;" vertex="1" parent="1">
          <mxGeometry x="540" y="330" width="100" height="40" as="geometry" />
        </mxCell>
        <mxCell id="PDdewnTOg1O3W2x46WFQ-41" style="edgeStyle=none;rounded=0;orthogonalLoop=1;jettySize=auto;html=1;exitX=0.5;exitY=1;exitDx=0;exitDy=0;entryX=0.75;entryY=0;entryDx=0;entryDy=0;endArrow=none;startSize=14;endSize=14;sourcePerimeterSpacing=8;targetPerimeterSpacing=8;" edge="1" parent="1" source="PDdewnTOg1O3W2x46WFQ-34" target="PDdewnTOg1O3W2x46WFQ-1">
          <mxGeometry relative="1" as="geometry" />
        </mxCell>
        <mxCell id="PDdewnTOg1O3W2x46WFQ-34" value="封面" style="ellipse;whiteSpace=wrap;html=1;align=center;hachureGap=4;pointerEvents=0;" vertex="1" parent="1">
          <mxGeometry x="520" y="270" width="100" height="40" as="geometry" />
        </mxCell>
        <mxCell id="PDdewnTOg1O3W2x46WFQ-40" style="edgeStyle=none;rounded=0;orthogonalLoop=1;jettySize=auto;html=1;exitX=0.5;exitY=1;exitDx=0;exitDy=0;endArrow=none;startSize=14;endSize=14;sourcePerimeterSpacing=8;targetPerimeterSpacing=8;" edge="1" parent="1" source="PDdewnTOg1O3W2x46WFQ-35">
          <mxGeometry relative="1" as="geometry">
            <mxPoint x="400" y="389.9999999999999" as="targetPoint" />
          </mxGeometry>
        </mxCell>
        <mxCell id="PDdewnTOg1O3W2x46WFQ-35" value="书名" style="ellipse;whiteSpace=wrap;html=1;align=center;hachureGap=4;pointerEvents=0;" vertex="1" parent="1">
          <mxGeometry x="430" y="220" width="100" height="40" as="geometry" />
        </mxCell>
        <mxCell id="PDdewnTOg1O3W2x46WFQ-38" style="edgeStyle=none;rounded=0;orthogonalLoop=1;jettySize=auto;html=1;exitX=1;exitY=1;exitDx=0;exitDy=0;entryX=0.25;entryY=0;entryDx=0;entryDy=0;endArrow=none;startSize=14;endSize=14;sourcePerimeterSpacing=8;targetPerimeterSpacing=8;" edge="1" parent="1" source="PDdewnTOg1O3W2x46WFQ-36" target="PDdewnTOg1O3W2x46WFQ-1">
          <mxGeometry relative="1" as="geometry" />
        </mxCell>
        <mxCell id="PDdewnTOg1O3W2x46WFQ-36" value="书号" style="ellipse;whiteSpace=wrap;html=1;align=center;fontStyle=4;hachureGap=4;pointerEvents=0;" vertex="1" parent="1">
          <mxGeometry x="200" y="260" width="100" height="40" as="geometry" />
        </mxCell>
        <mxCell id="PDdewnTOg1O3W2x46WFQ-58" value="" style="edgeStyle=none;rounded=0;orthogonalLoop=1;jettySize=auto;html=1;endArrow=none;startSize=14;endSize=14;sourcePerimeterSpacing=8;targetPerimeterSpacing=8;exitX=0.5;exitY=0;exitDx=0;exitDy=0;entryX=0.25;entryY=1;entryDx=0;entryDy=0;" edge="1" parent="1" source="PDdewnTOg1O3W2x46WFQ-53" target="PDdewnTOg1O3W2x46WFQ-1">
          <mxGeometry relative="1" as="geometry" />
        </mxCell>
        <mxCell id="PDdewnTOg1O3W2x46WFQ-64" style="edgeStyle=none;rounded=0;orthogonalLoop=1;jettySize=auto;html=1;exitX=0.5;exitY=1;exitDx=0;exitDy=0;entryX=0.5;entryY=0;entryDx=0;entryDy=0;endArrow=none;startSize=14;endSize=14;sourcePerimeterSpacing=8;targetPerimeterSpacing=8;" edge="1" parent="1" source="PDdewnTOg1O3W2x46WFQ-53" target="PDdewnTOg1O3W2x46WFQ-62">
          <mxGeometry relative="1" as="geometry" />
        </mxCell>
        <mxCell id="PDdewnTOg1O3W2x46WFQ-53" value="属于" style="shape=rhombus;perimeter=rhombusPerimeter;whiteSpace=wrap;html=1;align=center;hachureGap=4;pointerEvents=0;" vertex="1" parent="1">
          <mxGeometry x="270" y="500" width="120" height="60" as="geometry" />
        </mxCell>
        <mxCell id="PDdewnTOg1O3W2x46WFQ-59" value="" style="edgeStyle=none;rounded=0;orthogonalLoop=1;jettySize=auto;html=1;endArrow=none;startSize=14;endSize=14;sourcePerimeterSpacing=8;targetPerimeterSpacing=8;exitX=0.5;exitY=0;exitDx=0;exitDy=0;entryX=0.75;entryY=1;entryDx=0;entryDy=0;" edge="1" parent="1" source="PDdewnTOg1O3W2x46WFQ-55" target="PDdewnTOg1O3W2x46WFQ-1">
          <mxGeometry relative="1" as="geometry" />
        </mxCell>
        <mxCell id="PDdewnTOg1O3W2x46WFQ-73" style="edgeStyle=none;rounded=0;orthogonalLoop=1;jettySize=auto;html=1;exitX=0.5;exitY=1;exitDx=0;exitDy=0;entryX=0.5;entryY=0;entryDx=0;entryDy=0;endArrow=none;startSize=14;endSize=14;sourcePerimeterSpacing=8;targetPerimeterSpacing=8;" edge="1" parent="1" source="PDdewnTOg1O3W2x46WFQ-55" target="PDdewnTOg1O3W2x46WFQ-63">
          <mxGeometry relative="1" as="geometry" />
        </mxCell>
        <mxCell id="PDdewnTOg1O3W2x46WFQ-55" value="属于" style="shape=rhombus;perimeter=rhombusPerimeter;whiteSpace=wrap;html=1;align=center;hachureGap=4;pointerEvents=0;" vertex="1" parent="1">
          <mxGeometry x="420" y="500" width="120" height="60" as="geometry" />
        </mxCell>
        <mxCell id="PDdewnTOg1O3W2x46WFQ-66" value="" style="edgeStyle=none;rounded=0;orthogonalLoop=1;jettySize=auto;html=1;endArrow=none;startSize=14;endSize=14;sourcePerimeterSpacing=8;targetPerimeterSpacing=8;entryX=1;entryY=0.5;entryDx=0;entryDy=0;exitX=0;exitY=0.5;exitDx=0;exitDy=0;" edge="1" parent="1" source="PDdewnTOg1O3W2x46WFQ-62" target="PDdewnTOg1O3W2x46WFQ-65">
          <mxGeometry relative="1" as="geometry" />
        </mxCell>
        <mxCell id="PDdewnTOg1O3W2x46WFQ-72" style="edgeStyle=none;rounded=0;orthogonalLoop=1;jettySize=auto;html=1;exitX=0.5;exitY=1;exitDx=0;exitDy=0;entryX=0;entryY=0;entryDx=0;entryDy=0;endArrow=none;startSize=14;endSize=14;sourcePerimeterSpacing=8;targetPerimeterSpacing=8;" edge="1" parent="1" source="PDdewnTOg1O3W2x46WFQ-62" target="PDdewnTOg1O3W2x46WFQ-69">
          <mxGeometry relative="1" as="geometry" />
        </mxCell>
        <mxCell id="PDdewnTOg1O3W2x46WFQ-62" value="大类" style="rounded=1;arcSize=10;whiteSpace=wrap;html=1;align=center;hachureGap=4;pointerEvents=0;" vertex="1" parent="1">
          <mxGeometry x="280" y="600" width="100" height="40" as="geometry" />
        </mxCell>
        <mxCell id="PDdewnTOg1O3W2x46WFQ-71" style="edgeStyle=none;rounded=0;orthogonalLoop=1;jettySize=auto;html=1;exitX=0.5;exitY=1;exitDx=0;exitDy=0;entryX=1;entryY=0;entryDx=0;entryDy=0;endArrow=none;startSize=14;endSize=14;sourcePerimeterSpacing=8;targetPerimeterSpacing=8;" edge="1" parent="1" source="PDdewnTOg1O3W2x46WFQ-63" target="PDdewnTOg1O3W2x46WFQ-69">
          <mxGeometry relative="1" as="geometry" />
        </mxCell>
        <mxCell id="PDdewnTOg1O3W2x46WFQ-63" value="小类" style="rounded=1;arcSize=10;whiteSpace=wrap;html=1;align=center;hachureGap=4;pointerEvents=0;" vertex="1" parent="1">
          <mxGeometry x="430" y="600" width="100" height="40" as="geometry" />
        </mxCell>
        <mxCell id="PDdewnTOg1O3W2x46WFQ-65" value="大类类别编号" style="ellipse;whiteSpace=wrap;html=1;rounded=1;arcSize=10;hachureGap=4;fontStyle=4" vertex="1" parent="1">
          <mxGeometry x="90" y="560" width="120" height="60" as="geometry" />
        </mxCell>
        <mxCell id="PDdewnTOg1O3W2x46WFQ-68" style="edgeStyle=none;rounded=0;orthogonalLoop=1;jettySize=auto;html=1;exitX=1;exitY=0.5;exitDx=0;exitDy=0;entryX=0;entryY=1;entryDx=0;entryDy=0;endArrow=none;startSize=14;endSize=14;sourcePerimeterSpacing=8;targetPerimeterSpacing=8;" edge="1" parent="1" source="PDdewnTOg1O3W2x46WFQ-67" target="PDdewnTOg1O3W2x46WFQ-62">
          <mxGeometry relative="1" as="geometry" />
        </mxCell>
        <mxCell id="PDdewnTOg1O3W2x46WFQ-67" value="大类类别名称" style="ellipse;whiteSpace=wrap;html=1;rounded=1;arcSize=10;hachureGap=4;" vertex="1" parent="1">
          <mxGeometry x="100" y="660" width="120" height="60" as="geometry" />
        </mxCell>
        <mxCell id="PDdewnTOg1O3W2x46WFQ-69" value="分成" style="rhombus;whiteSpace=wrap;html=1;rounded=1;arcSize=10;hachureGap=4;" vertex="1" parent="1">
          <mxGeometry x="360" y="680" width="80" height="80" as="geometry" />
        </mxCell>
        <mxCell id="PDdewnTOg1O3W2x46WFQ-74" value="n" style="text;html=1;strokeColor=none;fillColor=none;align=center;verticalAlign=middle;whiteSpace=wrap;rounded=0;hachureGap=4;pointerEvents=0;" vertex="1" parent="1">
          <mxGeometry x="300" y="480" width="40" height="20" as="geometry" />
        </mxCell>
        <mxCell id="PDdewnTOg1O3W2x46WFQ-77" value="n" style="text;html=1;strokeColor=none;fillColor=none;align=center;verticalAlign=middle;whiteSpace=wrap;rounded=0;hachureGap=4;pointerEvents=0;" vertex="1" parent="1">
          <mxGeometry x="470" y="480" width="40" height="20" as="geometry" />
        </mxCell>
        <mxCell id="PDdewnTOg1O3W2x46WFQ-84" value="" style="edgeStyle=none;rounded=0;orthogonalLoop=1;jettySize=auto;html=1;endArrow=none;startSize=14;endSize=14;sourcePerimeterSpacing=8;targetPerimeterSpacing=8;" edge="1" parent="1" source="PDdewnTOg1O3W2x46WFQ-82" target="PDdewnTOg1O3W2x46WFQ-3">
          <mxGeometry relative="1" as="geometry" />
        </mxCell>
        <mxCell id="PDdewnTOg1O3W2x46WFQ-82" value="产生" style="rhombus;whiteSpace=wrap;html=1;rounded=1;hachureGap=4;" vertex="1" parent="1">
          <mxGeometry x="750" y="230" width="80" height="80" as="geometry" />
        </mxCell>
        <mxCell id="PDdewnTOg1O3W2x46WFQ-96" style="edgeStyle=none;rounded=0;orthogonalLoop=1;jettySize=auto;html=1;exitX=0.5;exitY=1;exitDx=0;exitDy=0;entryX=0.25;entryY=0;entryDx=0;entryDy=0;endArrow=none;startSize=14;endSize=14;sourcePerimeterSpacing=8;targetPerimeterSpacing=8;" edge="1" parent="1" source="PDdewnTOg1O3W2x46WFQ-85" target="PDdewnTOg1O3W2x46WFQ-2">
          <mxGeometry relative="1" as="geometry" />
        </mxCell>
        <mxCell id="PDdewnTOg1O3W2x46WFQ-85" value="用户ID" style="ellipse;whiteSpace=wrap;html=1;align=center;fontStyle=4;hachureGap=4;pointerEvents=0;" vertex="1" parent="1">
          <mxGeometry x="660" y="20" width="100" height="40" as="geometry" />
        </mxCell>
        <mxCell id="PDdewnTOg1O3W2x46WFQ-91" style="edgeStyle=none;rounded=0;orthogonalLoop=1;jettySize=auto;html=1;exitX=0.5;exitY=0;exitDx=0;exitDy=0;entryX=0;entryY=1;entryDx=0;entryDy=0;endArrow=none;startSize=14;endSize=14;sourcePerimeterSpacing=8;targetPerimeterSpacing=8;" edge="1" parent="1" source="PDdewnTOg1O3W2x46WFQ-86" target="PDdewnTOg1O3W2x46WFQ-87">
          <mxGeometry relative="1" as="geometry" />
        </mxCell>
        <mxCell id="PDdewnTOg1O3W2x46WFQ-92" style="edgeStyle=none;rounded=0;orthogonalLoop=1;jettySize=auto;html=1;exitX=1;exitY=0;exitDx=0;exitDy=0;endArrow=none;startSize=14;endSize=14;sourcePerimeterSpacing=8;targetPerimeterSpacing=8;entryX=0;entryY=0.5;entryDx=0;entryDy=0;" edge="1" parent="1" source="PDdewnTOg1O3W2x46WFQ-86" target="PDdewnTOg1O3W2x46WFQ-89">
          <mxGeometry relative="1" as="geometry" />
        </mxCell>
        <mxCell id="PDdewnTOg1O3W2x46WFQ-93" style="edgeStyle=none;rounded=0;orthogonalLoop=1;jettySize=auto;html=1;exitX=1;exitY=0.5;exitDx=0;exitDy=0;entryX=0;entryY=1;entryDx=0;entryDy=0;endArrow=none;startSize=14;endSize=14;sourcePerimeterSpacing=8;targetPerimeterSpacing=8;" edge="1" parent="1" source="PDdewnTOg1O3W2x46WFQ-86" target="PDdewnTOg1O3W2x46WFQ-88">
          <mxGeometry relative="1" as="geometry" />
        </mxCell>
        <mxCell id="PDdewnTOg1O3W2x46WFQ-94" style="edgeStyle=none;rounded=0;orthogonalLoop=1;jettySize=auto;html=1;exitX=1;exitY=1;exitDx=0;exitDy=0;entryX=0;entryY=0.5;entryDx=0;entryDy=0;endArrow=none;startSize=14;endSize=14;sourcePerimeterSpacing=8;targetPerimeterSpacing=8;" edge="1" parent="1" source="PDdewnTOg1O3W2x46WFQ-86" target="PDdewnTOg1O3W2x46WFQ-90">
          <mxGeometry relative="1" as="geometry" />
        </mxCell>
        <mxCell id="PDdewnTOg1O3W2x46WFQ-95" style="edgeStyle=none;rounded=0;orthogonalLoop=1;jettySize=auto;html=1;exitX=0;exitY=0.5;exitDx=0;exitDy=0;entryX=0.5;entryY=0;entryDx=0;entryDy=0;endArrow=none;startSize=14;endSize=14;sourcePerimeterSpacing=8;targetPerimeterSpacing=8;" edge="1" parent="1" source="PDdewnTOg1O3W2x46WFQ-86" target="PDdewnTOg1O3W2x46WFQ-2">
          <mxGeometry relative="1" as="geometry" />
        </mxCell>
        <mxCell id="PDdewnTOg1O3W2x46WFQ-86" value="送货地址" style="ellipse;shape=doubleEllipse;margin=3;whiteSpace=wrap;html=1;align=center;hachureGap=4;pointerEvents=0;" vertex="1" parent="1">
          <mxGeometry x="840" y="20" width="100" height="40" as="geometry" />
        </mxCell>
        <mxCell id="PDdewnTOg1O3W2x46WFQ-87" value="省" style="ellipse;whiteSpace=wrap;html=1;align=center;hachureGap=4;pointerEvents=0;" vertex="1" parent="1">
          <mxGeometry x="960" y="-110" width="100" height="40" as="geometry" />
        </mxCell>
        <mxCell id="PDdewnTOg1O3W2x46WFQ-88" value="区" style="ellipse;whiteSpace=wrap;html=1;align=center;hachureGap=4;pointerEvents=0;" vertex="1" parent="1">
          <mxGeometry x="990" y="30" width="100" height="40" as="geometry" />
        </mxCell>
        <mxCell id="PDdewnTOg1O3W2x46WFQ-89" value="市" style="ellipse;whiteSpace=wrap;html=1;align=center;hachureGap=4;pointerEvents=0;" vertex="1" parent="1">
          <mxGeometry x="980" y="-50" width="100" height="40" as="geometry" />
        </mxCell>
        <mxCell id="PDdewnTOg1O3W2x46WFQ-90" value="详细信息" style="ellipse;whiteSpace=wrap;html=1;align=center;hachureGap=4;pointerEvents=0;" vertex="1" parent="1">
          <mxGeometry x="1000" y="90" width="100" height="40" as="geometry" />
        </mxCell>
        <mxCell id="PDdewnTOg1O3W2x46WFQ-97" value="n" style="text;html=1;strokeColor=none;fillColor=none;align=center;verticalAlign=middle;whiteSpace=wrap;rounded=0;hachureGap=4;pointerEvents=0;" vertex="1" parent="1">
          <mxGeometry x="414" y="670" width="40" height="20" as="geometry" />
        </mxCell>
        <mxCell id="PDdewnTOg1O3W2x46WFQ-98" value="n" style="text;html=1;strokeColor=none;fillColor=none;align=center;verticalAlign=middle;whiteSpace=wrap;rounded=0;hachureGap=4;pointerEvents=0;" vertex="1" parent="1">
          <mxGeometry x="787" y="370" width="40" height="20" as="geometry" />
        </mxCell>
        <mxCell id="PDdewnTOg1O3W2x46WFQ-100" value="1" style="text;html=1;strokeColor=none;fillColor=none;align=center;verticalAlign=middle;whiteSpace=wrap;rounded=0;hachureGap=4;pointerEvents=0;" vertex="1" parent="1">
          <mxGeometry x="630" y="400" width="40" height="20" as="geometry" />
        </mxCell>
        <mxCell id="PDdewnTOg1O3W2x46WFQ-102" value="1" style="text;html=1;strokeColor=none;fillColor=none;align=center;verticalAlign=middle;whiteSpace=wrap;rounded=0;hachureGap=4;pointerEvents=0;" vertex="1" parent="1">
          <mxGeometry x="454" y="580" width="40" height="20" as="geometry" />
        </mxCell>
        <mxCell id="PDdewnTOg1O3W2x46WFQ-103" value="1" style="text;html=1;strokeColor=none;fillColor=none;align=center;verticalAlign=middle;whiteSpace=wrap;rounded=0;hachureGap=4;pointerEvents=0;" vertex="1" parent="1">
          <mxGeometry x="300" y="585" width="40" height="20" as="geometry" />
        </mxCell>
        <mxCell id="PDdewnTOg1O3W2x46WFQ-108" value="1" style="text;html=1;strokeColor=none;fillColor=none;align=center;verticalAlign=middle;whiteSpace=wrap;rounded=0;hachureGap=4;pointerEvents=0;" vertex="1" parent="1">
          <mxGeometry x="787" y="210" width="40" height="20" as="geometry" />
        </mxCell>
        <mxCell id="PDdewnTOg1O3W2x46WFQ-109" value="1" style="text;html=1;strokeColor=none;fillColor=none;align=center;verticalAlign=middle;whiteSpace=wrap;rounded=0;hachureGap=4;pointerEvents=0;" vertex="1" parent="1">
          <mxGeometry x="360" y="680" width="40" height="20" as="geometry" />
        </mxCell>
      </root>
    </mxGraphModel>
  </diagram>
</mxfile>
